<svg width="32" height="25" viewBox="0 0 32 25" fill="none" xmlns="http://www.w3.org/2000/svg">
<path fill-rule="evenodd" clip-rule="evenodd" d="M8.60496 4.59554C8.67756 4.28403 8.85344 4.00626 9.10397 3.80742C9.3545 3.60858 9.66495 3.50037 9.98479 3.5004H22.0151C22.335 3.50037 22.6454 3.60858 22.8959 3.80742C23.1465 4.00626 23.3224 4.28403 23.395 4.59554L24.1316 7.75061H7.86829L8.60496 4.59554ZM1.83329 10.5841H3.24996C2.36029 11.7685 1.83329 13.239 1.83329 14.8343V16.251C1.83329 18.1013 3.01621 19.6767 4.66663 20.2604V23.3347C4.66663 23.7104 4.81588 24.0708 5.08156 24.3365C5.34723 24.6022 5.70757 24.7514 6.08329 24.7514H7.49996C7.87568 24.7514 8.23602 24.6022 8.50169 24.3365C8.76737 24.0708 8.91663 23.7104 8.91663 23.3347V20.5012H23.0833V23.3347C23.0833 23.7104 23.2325 24.0708 23.4982 24.3365C23.7639 24.6022 24.1242 24.7514 24.5 24.7514H25.9166C26.2923 24.7514 26.6527 24.6022 26.9184 24.3365C27.184 24.0708 27.3333 23.7104 27.3333 23.3347V20.2604C28.1621 19.9671 28.8797 19.4241 29.3871 18.706C29.8945 17.988 30.1669 17.1303 30.1666 16.251V14.8343C30.1689 13.3012 29.6716 11.8092 28.75 10.5841H30.1666C30.5423 10.5841 30.9027 10.4348 31.1684 10.1691C31.434 9.90344 31.5833 9.54309 31.5833 9.16735C31.5833 8.7916 31.434 8.43125 31.1684 8.16556C30.9027 7.89987 30.5423 7.75061 30.1666 7.75061H28.75C28.3979 7.75075 28.0585 7.88199 27.7979 8.11876C27.5373 8.35553 27.3742 8.68086 27.3404 9.03134L27.2965 8.84575L26.1546 3.95092C25.9365 3.01666 25.4088 2.18366 24.6572 1.58742C23.9056 0.991172 22.9745 0.666756 22.0151 0.666931H9.98479C9.02545 0.666756 8.09427 0.991172 7.3427 1.58742C6.59113 2.18366 6.06338 3.01666 5.84529 3.95092L4.70346 8.84575L4.66096 9.03134C4.62714 8.68062 4.46384 8.35509 4.20295 8.11828C3.94206 7.88148 3.60229 7.75039 3.24996 7.75061H1.83329C1.45757 7.75061 1.09723 7.89987 0.831558 8.16556C0.565881 8.43125 0.416626 8.7916 0.416626 9.16735C0.416626 9.54309 0.565881 9.90344 0.831558 10.1691C1.09723 10.4348 1.45757 10.5841 1.83329 10.5841ZM8.91663 10.5841C7.78946 10.5841 6.70845 11.0319 5.91142 11.8289C5.11439 12.626 4.66663 13.7071 4.66663 14.8343V16.251C4.66663 16.6268 4.81588 16.9871 5.08156 17.2528C5.34723 17.5185 5.70757 17.6678 6.08329 17.6678H25.9166C26.2923 17.6678 26.6527 17.5185 26.9184 17.2528C27.184 16.9871 27.3333 16.6268 27.3333 16.251V14.8343C27.3333 13.7071 26.8855 12.626 26.0885 11.8289C25.2915 11.0319 24.2105 10.5841 23.0833 10.5841H8.91663ZM7.49996 14.1259C7.49996 13.5623 7.72384 13.0218 8.12236 12.6232C8.52087 12.2247 9.06137 12.0008 9.62496 12.0008C10.1885 12.0008 10.729 12.2247 11.1276 12.6232C11.5261 13.0218 11.75 13.5623 11.75 14.1259C11.75 14.6895 11.5261 15.2301 11.1276 15.6286C10.729 16.0271 10.1885 16.251 9.62496 16.251C9.06137 16.251 8.52087 16.0271 8.12236 15.6286C7.72384 15.2301 7.49996 14.6895 7.49996 14.1259ZM22.375 12.0008C21.8114 12.0008 21.2709 12.2247 20.8724 12.6232C20.4738 13.0218 20.25 13.5623 20.25 14.1259C20.25 14.6895 20.4738 15.2301 20.8724 15.6286C21.2709 16.0271 21.8114 16.251 22.375 16.251C22.9385 16.251 23.479 16.0271 23.8776 15.6286C24.2761 15.2301 24.5 14.6895 24.5 14.1259C24.5 13.5623 24.2761 13.0218 23.8776 12.6232C23.479 12.2247 22.9385 12.0008 22.375 12.0008Z" fill="white"/>
</svg>
