<svg width="21" height="18" viewBox="0 0 21 18" fill="none" xmlns="http://www.w3.org/2000/svg">
<path fill-rule="evenodd" clip-rule="evenodd" d="M9.92495 0.980037C10.0799 0.832296 10.2858 0.749878 10.5 0.749878C10.7141 0.749878 10.92 0.832296 11.075 0.980037L17.7416 7.3292L19.825 9.31254C19.9852 9.46504 20.0783 9.67494 20.0838 9.89608C20.0892 10.1172 20.0066 10.3315 19.8541 10.4917C19.7016 10.6519 19.4917 10.745 19.2706 10.7505C19.0494 10.756 18.8352 10.6734 18.675 10.5209L18 9.8767V16.1667C18 16.6087 17.8244 17.0327 17.5118 17.3452C17.1992 17.6578 16.7753 17.8334 16.3333 17.8334H4.66662C4.22459 17.8334 3.80067 17.6578 3.48811 17.3452C3.17555 17.0327 2.99995 16.6087 2.99995 16.1667V9.8767L2.32495 10.52C2.16494 10.6725 1.9509 10.7552 1.72992 10.7499C1.50894 10.7446 1.29912 10.6517 1.14662 10.4917C0.99412 10.3317 0.911432 10.1176 0.916745 9.89667C0.922059 9.67569 1.01494 9.46587 1.17495 9.31337L3.25829 7.3292L9.92495 0.979203V0.980037ZM4.66662 8.29004V16.1667H7.99995V12C7.99995 11.337 8.26334 10.7011 8.73219 10.2323C9.20103 9.76343 9.83691 9.50004 10.5 9.50004C11.163 9.50004 11.7989 9.76343 12.2677 10.2323C12.7366 10.7011 13 11.337 13 12V16.1667H16.3333V8.29004L10.5 2.73337L4.66662 8.2892V8.29004ZM11.3333 16.1667V12C11.3333 11.779 11.2455 11.5671 11.0892 11.4108C10.9329 11.2545 10.721 11.1667 10.5 11.1667C10.2789 11.1667 10.067 11.2545 9.9107 11.4108C9.75442 11.5671 9.66662 11.779 9.66662 12V16.1667H11.3333Z" fill="currentColor"/>
</svg>
