<svg width="18" height="13" viewBox="0 0 18 13" fill="none" xmlns="http://www.w3.org/2000/svg">
<path fill-rule="evenodd" clip-rule="evenodd" d="M5.81589 4.87577C5.81589 4.04707 6.15047 3.2523 6.74603 2.66632C7.34159 2.08034 8.14934 1.75113 8.99158 1.75113C9.83383 1.75113 10.6416 2.08034 11.2371 2.66632C11.8327 3.2523 12.1673 4.04707 12.1673 4.87577V5.65693H12.9612C13.3261 5.65693 13.6874 5.72765 14.0246 5.86505C14.3617 6.00245 14.668 6.20384 14.926 6.45772C15.1841 6.7116 15.3888 7.013 15.5284 7.34471C15.668 7.67643 15.7399 8.03195 15.7399 8.39099C15.7399 8.75004 15.668 9.10556 15.5284 9.43727C15.3888 9.76898 15.1841 10.0704 14.926 10.3243C14.668 10.5781 14.3617 10.7795 14.0246 10.9169C13.6874 11.0543 13.3261 11.1251 12.9612 11.1251H12.8818C12.6712 11.1251 12.4693 11.2074 12.3204 11.3538C12.1715 11.5003 12.0879 11.699 12.0879 11.9062C12.0879 12.1134 12.1715 12.3121 12.3204 12.4586C12.4693 12.6051 12.6712 12.6874 12.8818 12.6874H12.9612C14.0561 12.6888 15.1116 12.2853 15.9185 11.5571C16.7253 10.8289 17.2247 9.82894 17.3176 8.75551C17.4105 7.68208 17.0901 6.61348 16.42 5.7615C15.7499 4.90951 14.7789 4.33633 13.6995 4.15554C13.5252 3.05011 12.9548 2.04248 12.0914 1.31465C11.228 0.586813 10.1285 0.186768 8.99158 0.186768C7.85464 0.186768 6.75518 0.586813 5.89179 1.31465C5.02839 2.04248 4.458 3.05011 4.28362 4.15554C3.20777 4.34035 2.24129 4.91498 1.57471 5.76618C0.908124 6.61739 0.589787 7.6834 0.682445 8.7541C0.775104 9.8248 1.27204 10.8225 2.07529 11.5506C2.87855 12.2786 3.92985 12.6842 5.02197 12.6874H5.10136C5.31192 12.6874 5.51386 12.6051 5.66275 12.4586C5.81164 12.3121 5.89529 12.1134 5.89529 11.9062C5.89529 11.699 5.81164 11.5003 5.66275 11.3538C5.51386 11.2074 5.31192 11.1251 5.10136 11.1251H5.02197C4.65706 11.1251 4.29573 11.0543 3.9586 10.9169C3.62147 10.7795 3.31514 10.5781 3.05711 10.3243C2.79909 10.0704 2.59441 9.76898 2.45476 9.43727C2.31512 9.10556 2.24324 8.75004 2.24324 8.39099C2.24324 8.03195 2.31512 7.67643 2.45476 7.34471C2.59441 7.013 2.79909 6.7116 3.05711 6.45772C3.31514 6.20384 3.62147 6.00245 3.9586 5.86505C4.29573 5.72765 4.65706 5.65693 5.02197 5.65693H5.81589V4.87577ZM9.7855 5.65693C9.7855 5.44976 9.70186 5.25107 9.55297 5.10457C9.40408 4.95807 9.20214 4.87577 8.99158 4.87577C8.78102 4.87577 8.57908 4.95807 8.43019 5.10457C8.2813 5.25107 8.19766 5.44976 8.19766 5.65693V10.0205L7.17112 9.01045C7.02138 8.86816 6.82084 8.78942 6.61267 8.7912C6.40451 8.79298 6.20538 8.87514 6.05818 9.01997C5.91098 9.1648 5.82749 9.36073 5.82568 9.56555C5.82387 9.77036 5.90389 9.96769 6.04851 10.115L8.43028 12.4585C8.57916 12.6049 8.78106 12.6872 8.99158 12.6872C9.2021 12.6872 9.404 12.6049 9.55288 12.4585L11.9346 10.115C12.0793 9.96769 12.1593 9.77036 12.1575 9.56555C12.1557 9.36073 12.0722 9.1648 11.925 9.01997C11.7778 8.87514 11.5787 8.79298 11.3705 8.7912C11.1623 8.78942 10.9618 8.86816 10.812 9.01045L9.7855 10.0205V5.65693Z" fill="currentColor"/>
</svg>
